<?xml version="1.0" encoding="utf-8"?>
<!-- Generator: Adobe Illustrator 21.1.0, SVG Export Plug-In . SVG Version: 6.00 Build 0)  -->
<svg version="1.1" id="Layer_1" xmlns="http://www.w3.org/2000/svg" xmlns:xlink="http://www.w3.org/1999/xlink" x="0px" y="0px"
	 viewBox="0 0 229.1 107.6" style="enable-background:new 0 0 229.1 107.6;" xml:space="preserve" preserveAspectRatio="xMinYMin">
<style type="text/css">
	.st0{fill:#41225E;}
	.st1{fill:#FFFFFF;}
</style>
<g>
	<path class="st0" d="M0.7,23.4c0,0,35.7-22.2,79.6-0.2l0.3,48.3c0,0-6.6,18.6-40.1,35.6c0,0-8.8-2.1-25-16.5
		c0,0-13.5-12.5-15.1-19.6L0.7,23.4z"/>
	<g>
		<path class="st1" d="M40.6,13.2c0-0.1,0.1-0.2,0.1-0.3c0,0-0.1,0-0.1,0c0,0,0,0,0,0C40.6,13,40.6,13.1,40.6,13.2 M81.1,70.7
			c0-3.6-0.2-42-0.2-43.6L80.8,23L77,21.1c-12-5.6-23.7-7.4-30.8-8c0.3,0.4,0.7,0.7,1.1,1c7.1,0.7,18.1,2.5,29.3,7.8l3.4,1.6
			l0.1,3.6c0,1.6,0.2,40,0.2,43.6c0,4.6-6.8,11.6-12.3,16.9c-4.6,4.5-13.8,12.9-24.7,17.8l-2.6,1.2l-2.6-1.2
			C27,100.6,18.3,92.4,13.7,88C8.2,82.7,0.9,75.3,0.9,70.7c0-3.6,0.2-42,0.2-43.6l0.1-3.6l3.4-1.6c11.3-5.3,22.4-7.2,29.4-7.8
			c0.4-0.3,0.8-0.6,1.1-1c-7.1,0.5-18.9,2.3-30.9,8L0.3,23l-0.1,4.2c0,1.6-0.2,40-0.2,43.6c0,3.9,4.9,10,13.1,17.9
			c4.7,4.5,13.4,12.8,24.5,17.7l3,1.3l3-1.3c11.1-4.9,20.3-13.5,25-18C76.7,80.4,81.1,74.7,81.1,70.7"/>
		<path class="st1" d="M77.5,27.7l0-2.4l-2.2-1.1C66.5,20,57.8,18,51.1,17c-0.1,1.2-0.3,3-0.4,4.5c5.7,0.9,13.1,2.7,20.4,6.2
			l1.9,0.9l0,2.1c0,1,0,18.2,0,29l3.7,1.5l-3.7,3.5c0,1.7,0,3,0,3.4c0,3.8-6.9,11.1-9.9,14C59.2,86.2,51.3,93.3,42,97.6l-1.5,0.7
			L39,97.6c-9.2-4.2-17.2-11.4-21.1-15.3c-3-3-9.9-10.2-9.9-14c0-0.5,0-1.8,0-3.6l-3.6-3.4L8,59.7c0-10.8-0.1-27.9,0-28.9l0-2.1
			l1.4-0.9c7.5-3.6,15.2-5.4,21.1-6.2c-0.1-1.5-0.3-3.3-0.4-4.5c-6.8,0.9-16.1,2.9-25,7.2l-1.6,1.1l0,2.4c0,1.6,0.1,38.4,0.1,41.6
			c0,4.3,7.8,12.6,11.2,15.9c4.5,4.4,13.5,12.6,24,17.4l1.7,0.8l1.7-0.8c10.5-4.8,19.5-13,24-17.4c3.4-3.4,11.2-11.6,11.2-15.9
			C77.5,66.1,77.6,29.3,77.5,27.7"/>
		<path class="st1" d="M22.8,53.7c0.8-5.3,3.5-18.1,12.7-28.5c0,0-19.3,5.9-24.4,33.7L22.8,53.7z"/>
		<path class="st1" d="M58.2,53.7c-0.8-5.3-3.5-18.1-12.7-28.5c0,0,19.3,5.9,24.4,33.7L58.2,53.7z"/>
		<path class="st1" d="M17.8,77.4L17,72.7L14.1,74v-1.7l10.5-4.8v1.7l-2.4,1.1l-1.2,6.8c3,0.7,3.7,4,3.8,7.9v8
			c2.6,2.3,5.2,2.5,7.4,4.5V85.1c0-3.7,2.5-6.8,6-7.8l-1.5-8.1H33v-1.7h15.2v1.7h-3.8l-1.5,8.1c3.4,1,6,4.1,6,7.8v12l7.4-4.7v-7.4
			c0.1-4,0.8-7.3,3.8-7.9l-1.2-6.8l-2.4-1.1v-1.7L67,72.4V74l-2.9-1.3l-0.8,4.7c2.4,1,3.1,4.1,3.1,7.7V84l4-4.1V67.3l-14.4-6.4H42.9
			h-4.8H25.2l-14.4,6.4V80c1.2,1.1,2.6,3,4,4.2C14.9,81,15.6,78.3,17.8,77.4"/>
		<path class="st1" d="M38.1,24.6C28.8,35.7,27.4,48,27.3,53.4h10.8h4.8h10.8c-0.1-5.4-1.5-17.7-10.8-28.8c0,0,0.2-3.3,5.2-3.3
			l0.3-4.5c0,0-6.4,0.3-6.3-12.8c0,0-0.5-0.4-1.5-0.4v0c0,0,0,0,0,0s0,0,0,0v0c-1,0-1.5,0.4-1.5,0.4c0.3,13.2-6.3,12.8-6.3,12.8
			l0.3,4.5C37.9,21.3,38.1,24.6,38.1,24.6"/>
		<path class="st1" d="M38.7,1.8c0-1,0.8-1.8,1.9-1.8c1,0,1.9,0.8,1.9,1.8c0,1-0.8,1.8-1.9,1.8C39.5,3.7,38.7,2.9,38.7,1.8"/>
	</g>
	<path id="R" class="st1" d="M223.7,66.7v-0.8c0-0.2,0.1-0.3,0.3-0.3c0.2,0,0.6,0.1,0.6,0.5c0,0.2-0.1,0.4-0.3,0.5
		c-0.1,0.1-0.3,0.1-0.4,0.1H223.7z M225.8,68.1c-0.1,0-0.2-0.1-0.3-0.2c-0.4-0.4-0.5-0.7-0.8-1.1c0.4-0.1,0.6-0.4,0.6-0.8
		c0-0.7-0.6-0.8-1.1-0.8h-1.6v0.3c0.4,0,0.4,0,0.4,0.4v1.6c0,0.4,0,0.4-0.4,0.4v0.4h1.6V68c-0.4,0-0.4,0-0.4-0.4V67h0.1
		c0.1,0,0.2,0,0.3,0.2c0.1,0.2,0.2,0.5,0.4,0.8c0.3,0.4,0.6,0.5,1.1,0.5L225.8,68.1z M224,64.3c1.4,0,2.4,1.1,2.4,2.5
		c0,1.4-1,2.5-2.4,2.5c-1.3,0-2.4-1.1-2.4-2.5C221.7,65.4,222.7,64.3,224,64.3 M224,63.8c-1.7,0-3,1.4-3,3c0,1.7,1.3,3,3,3
		c1.7,0,3.1-1.4,3.1-3C227.1,65.2,225.8,63.8,224,63.8"/>
	<path id="CU" class="st1" d="M229.1,22.8c0-0.8-0.5-1.1-1.6-1.1c-1.2,0-3.4,0.5-6.9,0.5c-3.5,0-6.1-0.5-7.6-0.5
		c-1.2,0-1.8,0.3-1.8,1.1c0,1.8,2.6,1.2,5.6,2.3c2.9,1.1,3.3,3.9,3.3,8.6v11.7c0,7.2-0.6,12.3-4,15.9c-2.7,3-6.9,4.6-11.7,4.6
		c-5.3,0-9.4-2.3-11.9-6.2c-2-3.2-2-7.2-2-12.1v-1V36.1c0-6.7,0.1-9.9,2.3-11.1c1.8-0.9,3.7-0.7,3.7-2.1c0-0.9-0.7-1.2-2-1.2
		c-1.5,0-4.8,0.7-10.1,0.7c-4,0-6.9-0.5-8.4-0.5c-0.4,0-0.7,0-1,0.1c0,0,0,0,0,0c-0.1,0-0.3,0.1-0.4,0.1c0,0,0,0,0,0
		c0,0-0.1,0-0.1,0.1c-0.5,0.3-0.9,0.8-1.4,1.5c-0.1,0.1-0.1,0.2-0.2,0.4c0,0,0,0,0,0c0,0,0,0,0,0c-0.3,0.5-0.6,1-1.4,1
		c-1.3,0-6.8-4.1-16.2-4.1c-7.5,0-14,2.8-18.7,8c-4.4,4.9-6.9,11.3-6.9,18c0,13.8,9.7,23.4,24.1,23.4c7.2,0,13.5-2.2,18.5-6.7
		c3.3-2.9,4.8-5.3,4.8-6.3c0-0.7-0.4-1-1-1c-1.3,0-2.1,1.8-4.4,3.7c-4.2,3.4-9.3,5.3-14.1,5.3c-6.1,0-11.2-2.9-14.9-8.5
		c-2.7-4-4.2-9-4.2-14c0-12.1,7-19.3,15.5-19.3c6.4,0,12.7,3.2,16.8,8.6c3.1,4.1,2.9,6,4.5,6c0.7,0,1-0.3,1-1.2
		c0-1.1-0.8-4.9-1.1-11.1c0-0.7,0-1.3-0.1-1.7c0.8,0.2,1.8,0.3,3.1,0.7c2.5,0.8,3.2,1.9,3.2,6v16.5c0,15.2,5,22.7,19.8,22.7
		c14.8,0,22.3-8.1,22.3-24.3v-8.6c0-7.3,0-11.1,1.6-12.2C227.2,24,229.1,24.4,229.1,22.8"/>
	<path id="E" class="st1" d="M98.3,33v26.5c0,3.1-0.9,5.1-2.9,6.3c-1.8,1-3.4,1.1-3.4,2.6c0,0.7,0.6,1.2,1.8,1.2
		c1.4,0,5.3-0.6,11.6-0.6c5.6,0,10.2,0.6,13.7,0.6c4.5,0,7.6-1.1,9.7-3.9c1.8-2.4,2.9-5.9,2.9-7.4c0-0.8-0.4-1.4-1-1.4
		c-1.5,0-1.5,2.4-4.6,4.8c-3,2.4-8.1,3.9-13,3.9c-5.5,0-5.9-1.4-5.9-6.2V49.1c0-2.8,0.4-3.8,3.1-3.8h2.9c4.2,0,6.2,0.7,7.4,3.5
		c0.9,2.2,0.1,3.8,2,3.8c0.8,0,1.2-0.4,1.2-1.3c0-0.8-0.6-3.7-0.6-8.8c0-3.1,0.3-4.7,0.3-5.1c0-0.9-0.3-1.4-1.2-1.4
		c-1.8,0-1.8,2.1-3.1,3.9c-1.5,1.8-3.3,2.3-6.4,2.3h-2.3c-2.3,0-3.1-0.8-3.1-2.8V28.8c0-3,1.6-3.9,5.9-3.9c7.2,0,10.7,0.9,12.2,3.9
		c1,2-0.1,3.9,1.9,3.9c1,0,1.2-0.3,1.2-1.4c0-0.5-0.1-2.4-0.1-5.7v-1.4c0-2.2-0.4-2.4-2.9-2.4c-3.2,0-10.1,0.5-20.7,0.5
		c-7.8,0-12-0.5-12.7-0.5c-1.2,0-1.9,0.5-1.9,1.4c0,2.2,3.7,0.7,6.4,2.9C98.2,27.7,98.3,29.7,98.3,33"/>
</g>
</svg>
